<svg t="1730786251823" class="icon" viewBox="0 0 1024 1024" version="1.1" xmlns="http://www.w3.org/2000/svg" p-id="3200" width="200" height="200">
	<path d="M608 0c84.8 0 154.24 61.632 159.68 139.52l0.32 9.792v149.376c0 16.448-14.336 29.824-32 29.824a31.488 31.488 0 0 1-31.488-24.448L704 298.688V149.312c0-46.528-38.08-84.8-86.784-89.152L608 59.712H242.88l216.512 40.192a64 64 0 0 1 52.352 62.912l-0.064 673.408H608c49.92 0 90.88-35.52 95.552-80.96l0.448-8.576V597.312c0-16.448 14.336-29.824 32-29.824 15.68 0 28.8 10.56 31.488 24.448l0.512 5.376v149.376c0 79.168-66.048 143.936-149.504 148.992L608 896H511.68v41.344a64 64 0 0 1-81.728 61.44L110.208 906.24A64 64 0 0 1 64 844.8V149.248C64 70.144 130.048 5.376 213.504 0.32L224 0h384z m274.176 317.888l4.48 3.712 116.352 116.352c21.568 21.568 23.04 55.552 4.608 78.912l-4.608 5.12-116.352 116.416a32 32 0 0 1-48.96-40.832l3.648-4.48L922.496 512H608a32 32 0 0 1 0-64h314.496l-81.152-81.152a32 32 0 0 1-3.648-40.832l3.648-4.416a32 32 0 0 1 40.832-3.712z" fill="currentColor" p-id="3201">
	</path>
</svg>
