<svg t="1729149106274" class="icon" viewBox="0 0 1025 1024" version="1.1" xmlns="http://www.w3.org/2000/svg" p-id="12905">
	<path d="M607.301744 587.918975l-413.152882 371.329979c-39.115905 35.157599-101.543688 33.510043-138.728407-3.712215-37.193061-37.172206-38.73217-99.499884-3.436927-138.490658l372.764813-411.672167" fill="#e9ecef" p-id="12906" data-spm-anchor-id="a313x.search_index.0.i41.5afc3a81sfNmDU" class="">
	</path>
	<path d="M126.861831 1005.401384c-31.453726 0-62.874083-11.778984-86.194304-35.124231-45.01791-44.992884-46.88236-120.017173-4.146002-167.229044l372.764814-411.676338 30.919834 27.995943-372.764814 411.676338c-28.045995 30.978228-26.828055 80.208877 2.719511 109.74393 29.56425 29.593447 78.928372 30.911492 110.044244 2.948917l413.148711-371.329979 27.887496 31.024109-413.152882 371.32998c-22.7905 20.483921-52.021067 30.640375-81.226608 30.640375z" fill="#ffe066" p-id="12907" data-spm-anchor-id="a313x.search_index.0.i37.5afc3a81sfNmDU" class="">
	</path>
	<path d="M105.047352 965.613944c-31.453726 0-62.865741-11.770642-86.190132-35.115889l29.505855-29.480829c29.555908 29.576763 78.915858 30.890637 110.031731 2.932233l413.148711-371.32998 27.887496 31.02411-413.152882 371.32998c-22.786328 20.483921-52.025238 30.640375-81.230779 30.640375z" fill="#adb5bd" opacity=".15" p-id="12908" data-spm-anchor-id="a313x.search_index.0.i42.5afc3a81sfNmDU" class="">
	</path>
	<path d="M686.747323 325.919993m-274.899973 0a274.899973 274.899973 0 1 0 549.799946 0 274.899973 274.899973 0 1 0-549.799946 0Z" fill="currentColor" p-id="12909" data-spm-anchor-id="a313x.search_index.0.i35.5afc3a81sfNmDU" class="">
	</path>
	<path d="M686.747323 621.675108c-163.078871 0-295.750944-132.676244-295.750944-295.755115S523.672623 30.164878 686.747323 30.164878c163.083042 0 295.755115 132.676244 295.755115 295.755115s-132.676244 295.755115-295.755115 295.755115z m0-549.799946c-140.07982 0-254.040659 113.965011-254.04066 254.044831s113.96084 254.04483 254.04066 254.04483 254.04483-113.965011 254.04483-254.04483-113.965011-254.04483-254.04483-254.044831z" fill="#311b92" p-id="12910" data-spm-anchor-id="a313x.search_index.0.i32.5afc3a81sfNmDU" class="">
	</path>
	<path d="M755.327018 454.92553a183.224938 193.57326 58.916 1 0-189.195944-313.831813 183.224938 193.57326 58.916 1 0 189.195944 313.831813Z" fill="currentColor" opacity=".1" p-id="12911" data-spm-anchor-id="a313x.search_index.0.i31.5afc3a81sfNmDU" class="">
	</path>
	<path d="M678.841238 349.489722a99.583304 105.20168 58.916 1 0-102.828564-170.568533 99.583304 105.20168 58.916 1 0 102.828564 170.568533Z" fill="#b39ddb" opacity=".1" p-id="12912" data-spm-anchor-id="a313x.search_index.0.i36.5afc3a81sfNmDU" class="selected">
	</path>
	<path d="M504.1105 115.203806l387.751318 387.747148-29.493342 29.489171-387.751319-387.747148z" fill="#311b92" p-id="12913" data-spm-anchor-id="a313x.search_index.0.i33.5afc3a81sfNmDU" class="">
	</path>
	<path d="M344.126532 674.421934a20.8468 20.8468 0 0 1-14.748757-35.599728l59.791693-59.791693a20.855142 20.855142 0 1 1 29.493343 29.489171L358.875289 668.311377a20.788406 20.788406 0 0 1-14.748757 6.110557z" fill="currentColor" p-id="12914" data-spm-anchor-id="a313x.search_index.0.i40.5afc3a81sfNmDU" class="">
	</path>
</svg>
