<svg t="1729679027156" class="icon" viewBox="0 0 1024 1024" version="1.1" xmlns="http://www.w3.org/2000/svg" p-id="5807" width="200" height="200">
	<path d="M594.944 966.95466667c-22.528 23.04-51.712 35.328-86.016 35.328-36.352 0-66.56-12.288-90.624-36.352-24.064-24.064-36.352-53.248-36.352-86.528 0-31.744 11.264-58.88 33.792-79.872C445.44 771.37066667 475.648 757.54666667 506.88 757.54666667c33.28 0 62.464 12.288 86.016 35.84 24.064 23.552 35.84 52.736 35.84 87.04 0 34.304-11.264 63.488-33.792 86.528z m63.488-667.648l-47.104 212.992c-8.704 48.64-27.136 114.688-36.864 147.968-3.584 12.288-13.312 17.92-28.16 22.016-8.704 2.56-19.456 4.608-37.376 4.608-16.384 0-25.6-2.048-35.84-4.096-13.312-3.072-25.6-10.24-28.672-22.528L385.024 418.09066667c-22.528-102.4-36.864-163.84-44.032-208.896-4.096-29.184-5.632-50.688-5.632-64.512 0-4.096-3.072-13.312 0-26.112 3.072-28.672 15.36-51.2 36.352-66.048 20.48-14.336 44.544-26.624 80.384-34.816 34.304-7.68 86.528-8.704 119.296-0.512 33.792 8.192 55.296 21.504 76.288 41.472 23.04 21.504 28.16 43.008 28.16 79.36 0.512 31.744-5.12 84.48-17.408 161.28z m0 0" fill="currentColor" p-id="5808">
	</path>
</svg>
